<svg xmlns="http://www.w3.org/2000/svg" xmlns:xlink="http://www.w3.org/1999/xlink" viewBox="0 0 748 1080"><defs><clipPath id="clip-path"><rect x="204.46" y="707.6" width="339.67" height="91.6" style="fill:none"/></clipPath><clipPath id="clip-path-2"><polygon points="307.51 786.68 307.51 1024.07 437.99 1024.07 428.55 786.68 307.51 786.68" style="fill:none"/></clipPath><clipPath id="clip-path-3"><rect x="368.03" y="289.96" width="48" height="730.47" style="fill:none"/></clipPath></defs><g style="isolation:isolate"><g id="Layer_6" data-name="Layer 6"><path d="M512.28,630.89c-19.56,5-38-12.48-38-35.94V504.43c0-15.82-11-28.65-24.45-28.65s-24.45,12.83-24.45,28.65V666.08c0,20.5-14.18,37.12-31.68,37.12S362,686.58,362,666.08V489.75c0-19.59-13-35.81-29.65-37.08-18.28-1.39-33.76,15.61-33.76,37.08v80.53c0,28-19.38,50.72-43.28,50.72-24.57,0-44.21-23.94-43.25-52.71l7.41-221.66,4-101c1.64-4.62,5.93-7.49,10.39-6.38,4.24,1,7.28,5.45,7.28,10.53v82.65c0,12.36,8.55,22.39,19.1,22.39,10.28,0,18.72-9.53,19.09-21.57L282.05,244c.4-12.58,9.21-22.54,19.95-22.54,10.35,0,19,9.26,19.89,21.33l.94,12.46c.92,12.08,9.57,21.34,19.92,21.33h5.54c11,0,19.93-10.49,19.93-23.4V241.42c0-17,11.76-30.76,26.26-30.76,14.34,0,26,13.49,26.25,30.29l1.08,83.58c.22,16.78,11.89,30.25,26.21,30.25,14.48,0,26.21-13.75,26.21-30.72V286.33c0-16.92,11.71-30.64,26.15-30.64,14,0,25.57,13,26.12,29.42L537,593.49C537.58,611.33,527.17,627.1,512.28,630.89Z" style="fill:blue"/></g><g id="Layer_5" data-name="Layer 5"><path d="M525.43,283.8s0,1.08.11,3l.26-.07-.12-3L522,189a68.73,68.73,0,0,0-68.68-66h-160a68.74,68.74,0,0,0-68.68,66l-2.21,56.55c1.64-4.62,5.93-7.49,10.39-6.38,4.24,1,7.28,5.45,7.28,10.53v82.65c0,12.36,8.55,22.39,19.1,22.39,10.28,0,18.72-9.53,19.09-21.57L281.05,244c.4-12.58,9.21-22.54,19.95-22.54,10.35,0,19,9.26,19.89,21.33l.94,12.46c.92,12.08,9.57,21.34,19.92,21.33h5.54c11,0,19.93-10.49,19.93-23.4V241.42c0-17,11.76-30.76,26.26-30.76,14.34,0,26,13.49,26.25,30.29l1.08,83.58c.22,16.78,11.89,30.25,26.21,30.25,14.48,0,26.21-13.75,26.21-30.72V286.33c0-16.92,11.71-30.64,26.15-30.64C513,255.69,524.33,268,525.43,283.8Z" style="fill:#f9b938"/></g><g id="Layer_4" data-name="Layer 4"><path d="M544.07,727.78l-5.6-143.11a6.75,6.75,0,0,1-1.79.35c.19,5.44.29,8.47.29,8.47.61,17.84-9.8,33.61-24.69,37.4-19.56,5-38-12.48-38-35.94V504.43c0-15.82-11-28.65-24.45-28.65s-24.45,12.83-24.45,28.65V666.08c0,20.5-14.18,37.12-31.68,37.12S362,686.58,362,666.08V489.75c0-19.59-13-35.81-29.65-37.08-18.28-1.39-33.76,15.61-33.76,37.08v80.53c0,28-19.38,50.72-43.28,50.72-24.57,0-44.21-23.94-43.25-52.71l-7.52,159.49a68.73,68.73,0,0,0,68.68,71.43h202.2A68.73,68.73,0,0,0,544.07,727.78Z" style="fill:#f9b938"/></g><g id="Layer_3" data-name="Layer 3"><g style="mix-blend-mode:multiply;opacity:0.39999398589134216"><g style="clip-path:url(#clip-path)"><path d="M475.39,765.81H273.19A68.72,68.72,0,0,1,205.3,707.6l-.79,20.18a68.72,68.72,0,0,0,68.68,71.42h202.2a68.72,68.72,0,0,0,68.68-71.42l-.79-20.18a68.72,68.72,0,0,1-67.89,58.21" style="fill:#ff7b7b"/></g></g></g><g id="Layer_2" data-name="Layer 2"><g style="clip-path:url(#clip-path-2)"><path d="M384.94,1020.43H359.46a31.08,31.08,0,0,1-31.08-31.09V321.05A31.07,31.07,0,0,1,359.46,290h25.48A31.08,31.08,0,0,1,416,321.05V989.34a31.08,31.08,0,0,1-31.09,31.09" style="fill:#f6c277"/><g style="mix-blend-mode:multiply"><g style="clip-path:url(#clip-path-3)"><path d="M372.2,290a41,41,0,0,0-4.17.21,43.82,43.82,0,0,1,39.65,43.61V976.6A43.82,43.82,0,0,1,368,1020.22c1.37.13,2.76.21,4.17.21A43.83,43.83,0,0,0,416,976.6V333.79A43.82,43.82,0,0,0,372.2,290" style="fill:#f6c277"/></g></g></g></g></g></svg>